<?xml version="1.0" encoding="UTF-8"?>
<svg id="Calque_1" xmlns="http://www.w3.org/2000/svg" version="1.1" viewBox="0 0 2148.09 350">
  <!-- Generator: Adobe Illustrator 29.1.0, SVG Export Plug-In . SVG Version: 2.1.0 Build 142)  -->
  <g>
    <path d="M425.4756,249.9932V108.5933h69.6904c15.7559,0,29.624,2.8628,41.6123,8.585,11.9844,5.7256,21.3418,13.8369,28.0771,24.3408,6.7324,10.5039,10.1006,23.0283,10.1006,37.5718,0,14.6797-3.3682,27.3047-10.1006,37.875-6.7354,10.5732-16.0928,18.7197-28.0771,24.4424-11.9883,5.7256-25.8564,8.585-41.6123,8.585h-69.6904ZM473.1475,212.8252h19.998c6.7324,0,12.625-1.2783,17.6758-3.8379,5.0498-2.5566,8.9883-6.3633,11.8164-11.4131,2.8281-5.0508,4.2422-11.2109,4.2422-18.4834,0-7.1357-1.4141-13.1958-4.2422-18.1797-2.8281-4.9805-6.7666-8.7524-11.8164-11.312-5.0508-2.5566-10.9434-3.8379-17.6758-3.8379h-19.998v67.064Z" fill="#09053a"/>
    <path d="M592.3252,249.9932V108.5933h47.6719v141.3999h-47.6719Z" fill="#09053a"/>
    <path d="M736.3496,253.2246c-11.4473,0-21.9863-1.7861-31.6133-5.3525-9.6289-3.5664-17.9775-8.6514-25.0479-15.251-7.0693-6.5967-12.5586-14.4082-16.4629-23.4326-3.9072-9.0205-5.8574-18.9873-5.8574-29.8955s1.9502-20.8721,5.8574-29.896c3.9043-9.0205,9.4248-16.832,16.5645-23.4316,7.1357-6.5967,15.585-11.6816,25.3506-15.251,9.7627-3.5669,20.5029-5.353,32.2188-5.353,14.0049,0,26.4941,2.3574,37.4717,7.0698,10.9736,4.7153,20.0293,11.4478,27.1689,20.2002l-30.502,26.8657c-4.4443-5.1162-9.2607-8.9888-14.4434-11.6147-5.1855-2.626-10.9424-3.939-17.2705-3.939-5.252,0-9.999.8076-14.2412,2.4238s-7.8467,3.9736-10.8076,7.0698c-2.9629,3.0996-5.252,6.8018-6.8672,11.1104-1.6162,4.311-2.4248,9.2256-2.4248,14.7456,0,5.252.8086,10.0684,2.4248,14.4434,1.6152,4.377,3.9043,8.1143,6.8672,11.2109,2.9609,3.0986,6.4961,5.4883,10.6055,7.1709,4.1064,1.6855,8.7178,2.5244,13.8369,2.5244,5.3848,0,10.6367-.9082,15.7559-2.7266,5.1162-1.8184,10.5703-4.9492,16.3623-9.3936l26.6641,32.7246c-8.6201,5.792-18.4512,10.2354-29.4922,13.332-11.0439,3.0957-21.75,4.6455-32.1182,4.6455ZM756.5498,229.1865v-53.7314h41.4102v59.792l-41.4102-6.0605Z" fill="#09053a"/>
    <path d="M818.3613,249.9932V108.5933h47.6719v141.3999h-47.6719Z" fill="#09053a"/>
    <path d="M962.1826,253.2246c-11.3115,0-21.7842-1.7861-31.4111-5.3525-9.6289-3.5664-17.9775-8.6514-25.0479-15.251-7.0693-6.5967-12.5586-14.4082-16.4629-23.4326-3.9072-9.0205-5.8574-18.9873-5.8574-29.8955s1.9502-20.8721,5.8574-29.896c3.9043-9.0205,9.3936-16.832,16.4629-23.4316,7.0703-6.5967,15.4189-11.6816,25.0479-15.251,9.627-3.5669,20.0996-5.353,31.4111-5.353,13.8691,0,26.1592,2.4238,36.8652,7.272,10.7061,4.8477,19.5596,11.8516,26.5635,21.0078l-30.0986,26.8662c-4.1758-5.252-8.7871-9.3237-13.8369-12.2212-5.0498-2.894-10.7402-4.3428-17.0693-4.3428-4.9834,0-9.4932.8076-13.5332,2.4238s-7.5088,3.9736-10.4033,7.0698c-2.8975,3.0996-5.1514,6.8364-6.7666,11.2109-1.6162,4.3779-2.4248,9.2607-2.4248,14.645,0,5.3877.8086,10.2705,2.4248,14.6445,1.6152,4.3779,3.8691,8.1152,6.7666,11.2109,2.8945,3.0996,6.3633,5.4541,10.4033,7.0703s8.5498,2.4238,13.5332,2.4238c6.3291,0,12.0195-1.4453,17.0693-4.3428,5.0498-2.8945,9.6611-6.9688,13.8369-12.2207l30.0986,26.8662c-7.0039,9.0234-15.8574,15.9922-26.5635,20.9062-10.7061,4.915-22.9961,7.373-36.8652,7.373Z" fill="#09053a"/>
    <path d="M1110.6504,253.2246c-11.583,0-22.2539-1.8174-32.0166-5.4541-9.7656-3.6357-18.2148-8.7861-25.3506-15.4521-7.1396-6.666-12.6953-14.5098-16.665-23.5332-3.9736-9.0205-5.959-18.8525-5.959-29.4922,0-10.772,1.9854-20.6353,5.959-29.5928,3.9697-8.9541,9.5254-16.7661,16.665-23.4321,7.1357-6.666,15.585-11.8169,25.3506-15.4531,9.7627-3.6357,20.3672-5.4536,31.8154-5.4536,11.5801,0,22.2197,1.8179,31.916,5.4536,9.6953,3.6362,18.1104,8.7871,25.25,15.4531,7.1357,6.666,12.6904,14.478,16.6641,23.4321,3.9707,8.9575,5.96,18.8208,5.96,29.5928,0,10.6396-1.9893,20.4717-5.96,29.4922-3.9736,9.0234-9.5283,16.8672-16.6641,23.5332-7.1396,6.666-15.5547,11.8164-25.25,15.4521-9.6963,3.6367-20.2695,5.4541-31.7148,5.4541ZM1110.4492,214.6426c4.4434,0,8.585-.8076,12.4229-2.4238s7.2021-3.9385,10.0996-6.9688c2.8945-3.0303,5.1514-6.7324,6.7676-11.1104,1.6152-4.374,2.4238-9.3232,2.4238-14.8467,0-5.52-.8086-10.4692-2.4238-14.8467-1.6162-4.3745-3.873-8.0801-6.7676-11.1104-2.8975-3.0298-6.2617-5.3525-10.0996-6.9688s-7.9795-2.4238-12.4229-2.4238-8.585.8076-12.4238,2.4238c-3.8379,1.6162-7.2051,3.939-10.0996,6.9688-2.8975,3.0303-5.1514,6.7358-6.7666,11.1104-1.6162,4.3774-2.4248,9.3267-2.4248,14.8467,0,5.5234.8086,10.4727,2.4248,14.8467,1.6152,4.3779,3.8691,8.0801,6.7666,11.1104,2.8945,3.0303,6.2617,5.3525,10.0996,6.9688,3.8389,1.6162,7.9795,2.4238,12.4238,2.4238Z" fill="#09053a"/>
    <path d="M1207.6094,249.9932V108.5933h39.1885l56.5596,92.314h-20.6035l54.9434-92.314h39.1885l.4043,141.3999h-43.4307l-.4033-75.9521h6.8672l-37.5713,63.2256h-21.0078l-39.1885-63.2256h8.4844v75.9521h-43.4307Z" fill="#09053a"/>
    <path d="M1400.3164,249.9932V108.5933h39.1885l56.5596,92.314h-20.6035l54.9434-92.314h39.1885l.4043,141.3999h-43.4307l-.4033-75.9521h6.8672l-37.5713,63.2256h-21.0078l-39.1885-63.2256h8.4844v75.9521h-43.4307Z" fill="#09053a"/>
    <path d="M1639.8877,214.0371h70.7002v35.9561h-117.5645V108.5933h114.9385v35.9561h-68.0742v69.4878ZM1636.6562,161.1133h63.0234v34.3398h-63.0234v-34.3398Z" fill="#09053a"/>
    <path d="M1728.9668,249.9932V108.5933h68.0742c13.1963,0,24.6094,2.1558,34.2393,6.4639,9.626,4.3115,17.0693,10.4727,22.3213,18.4829,5.252,8.0137,7.8779,17.4731,7.8779,28.3813s-2.626,20.3003-7.8779,28.1782-12.6953,13.9072-22.3213,18.0791c-9.6299,4.1758-21.043,6.2627-34.2393,6.2627h-41.6123l21.21-19.5947v55.1465h-47.6719ZM1776.6387,200.0986l-21.21-21.6133h38.582c6.5967,0,11.4795-1.4805,14.6455-4.4443,3.1621-2.9604,4.7471-7.0005,4.7471-12.1196s-1.585-9.1567-4.7471-12.1201c-3.166-2.9604-8.0488-4.4443-14.6455-4.4443h-38.582l21.21-21.6138v76.3555ZM1813.6055,249.9932l-34.7441-51.5098h50.5l35.1475,51.5098h-50.9033Z" fill="#09053a"/>
    <path d="M1952.5801,253.2246c-11.3115,0-21.7842-1.7861-31.4111-5.3525-9.6289-3.5664-17.9775-8.6514-25.0479-15.251-7.0693-6.5967-12.5586-14.4082-16.4629-23.4326-3.9072-9.0205-5.8574-18.9873-5.8574-29.8955s1.9502-20.8721,5.8574-29.896c3.9043-9.0205,9.3936-16.832,16.4629-23.4316,7.0703-6.5967,15.4189-11.6816,25.0479-15.251,9.627-3.5669,20.0996-5.353,31.4111-5.353,13.8691,0,26.1592,2.4238,36.8652,7.272,10.7061,4.8477,19.5596,11.8516,26.5635,21.0078l-30.0986,26.8662c-4.1758-5.252-8.7871-9.3237-13.8369-12.2212-5.0498-2.894-10.7402-4.3428-17.0693-4.3428-4.9834,0-9.4932.8076-13.5332,2.4238s-7.5088,3.9736-10.4033,7.0698c-2.8975,3.0996-5.1514,6.8364-6.7666,11.2109-1.6162,4.3779-2.4248,9.2607-2.4248,14.645,0,5.3877.8086,10.2705,2.4248,14.6445,1.6152,4.3779,3.8691,8.1152,6.7666,11.2109,2.8945,3.0996,6.3633,5.4541,10.4033,7.0703s8.5498,2.4238,13.5332,2.4238c6.3291,0,12.0195-1.4453,17.0693-4.3428,5.0498-2.8945,9.6611-6.9688,13.8369-12.2207l30.0986,26.8662c-7.0039,9.0234-15.8574,15.9922-26.5635,20.9062-10.7061,4.915-22.9961,7.373-36.8652,7.373Z" fill="#09053a"/>
    <path d="M2076.6055,214.0371h70.7002v35.9561h-117.5645V108.5933h114.9385v35.9561h-68.0742v69.4878ZM2073.374,161.1133h63.0234v34.3398h-63.0234v-34.3398Z" fill="#09053a"/>
  </g>
  <g>
    <circle cx="175" cy="175" r="175" fill="#ccb161"/>
    <path d="M349.8016,184.1762c-4.2758,82.7633-66.0552,150.3104-146.1534,163.4835l-81.4756-81.4756c-.3885-.3363-.7648-.6865-1.128-1.05-3.8777-3.8755-6.2738-9.2269-6.2738-15.1382-.009-6.1388,2.6257-11.9842,7.2311-16.0431l-8.3358-8.3358c-.3449-.299-.6796-.6111-1.0026-.9341-3.4402-3.4402-5.5752-8.1907-5.5752-13.4225,0-1.6406.2107-3.2339.6052-4.7542l-32.7454-32.7454c-2.0957-1.7274-2.3942-4.8267-.6668-6.9224.9339-1.133,2.3252-1.7894,3.7935-1.7897h38.6684l-45.2032-45.2032c-1.9201-1.9218-1.9187-5.0363.0031-6.9565.9211-.9202,2.1694-1.4378,3.4714-1.4392h28.3828l-24.457-24.457c-.9239-.9211-1.4422-2.1728-1.4401-3.4774-.0008-2.7163,2.2005-4.9189,4.9168-4.9197h20.5931c1.3409,0,2.5565.5359,3.4439,1.4051l.0729.0729,31.3753,31.3753h137.1708c1.4694-.003,2.8623.6545,3.7939,1.7908l70.9348,70.9363Z" fill="#ab8b2b" fill-rule="evenodd"/>
    <path d="M247.1094,238.4189c3.1996,0,6.0907,1.2987,8.1966,3.3906,2.169,2.1718,3.3851,5.117,3.3804,8.1863,0,3.1938-1.2928,6.0907-3.3804,8.1827-2.1739,2.173-5.1228,3.3921-8.1966,3.3884-3.071.0049-6.0172-1.2146-8.1863-3.3884-2.1725-2.1686-3.3918-5.1131-3.3884-8.1827,0-3.1996,1.2965-6.0907,3.3884-8.1863,2.1696-2.1734,5.1154-3.3934,8.1863-3.3906h0ZM136.1827,238.4189c3.1988,0,6.0944,1.2987,8.1864,3.3906,2.1748,2.1686,3.3949,5.1151,3.3899,8.1863,0,3.1938-1.2943,6.0907-3.3899,8.1827-2.1685,2.1749-5.1152,3.3945-8.1864,3.3884-3.07.0055-6.0153-1.2141-8.1827-3.3884-2.1743-2.1675-3.3944-5.1126-3.3899-8.1827,0-3.1996,1.2943-6.0907,3.3899-8.1863,2.1678-2.1739,5.1126-3.3942,8.1827-3.3906h0ZM99.125,88.4322l5.4826,23.0161h-29.5947c-2.7165,0-4.9186,2.2021-4.9186,4.9186s2.2021,4.9186,4.9186,4.9186h68.8866c2.7159,0,4.9175,2.2016,4.9175,4.9175s-2.2016,4.9175-4.9175,4.9175h-34.6048l1.664,6.9934h-6.1666c-2.7165,0-4.9186,2.2021-4.9186,4.9186s2.2021,4.9186,4.9186,4.9186h44.2138c2.7165.0331,4.8917,2.2621,4.8586,4.9786-.0325,2.6698-2.1889,4.8261-4.8586,4.8586h-33.3645l1.7281,7.2596h-39.2962c-2.7147,0-4.9153,2.2014-4.9153,4.9175s2.2014,4.9175,4.9153,4.9175h77.7416c2.7165.0329,4.892,2.2616,4.8591,4.9781-.0323,2.6701-2.189,4.8268-4.8591,4.8591h-33.756l1.8251,7.6694c-4.3524.5068-8.268,2.4974-11.2211,5.4461-3.4402,3.4438-5.5752,8.1944-5.5752,13.424s2.1357,9.9823,5.5752,13.4225c3.4439,3.4461,8.1944,5.5796,13.4283,5.5796h1.766c-2.5444,1.0783-4.8574,2.6365-6.8126,4.5894-4.0237,4.0117-6.2817,9.4622-6.2738,15.1441,0,5.9114,2.396,11.2627,6.2738,15.1382,3.8755,3.8755,9.2305,6.2716,15.1382,6.2716,5.9114,0,11.2685-2.396,15.1441-6.2716,3.8755-3.8755,6.2716-9.2269,6.2716-15.1382.0077-5.6814-2.2493-11.1316-6.2716-15.1441-1.9561-1.9529-4.2698-3.511-6.8148-4.5894h94.2674c-2.5432,1.0782-4.8547,2.6364-6.8082,4.5894-3.8755,3.8755-6.2738,9.2305-6.2738,15.1441s2.3982,11.2627,6.2738,15.1382c3.8755,3.8755,9.2261,6.2716,15.1382,6.2716s11.2583-2.396,15.136-6.2716c3.8777-3.8755,6.2832-9.2269,6.2832-15.1382s-2.4062-11.2685-6.2832-15.1441c-1.9491-1.9546-4.2584-3.5131-6.8002-4.5894h7.019c2.7045,0,4.9117-2.2014,4.9117-4.9197s-2.2072-4.9197-4.9117-4.9197H126.0911c-2.5156,0-4.8059-1.0318-6.4728-2.6921-1.6603-1.6647-2.6965-3.9514-2.6965-6.4706,0-2.5156,1.0361-4.8023,2.6965-6.4663,1.6661-1.6603,3.9572-2.6965,6.4728-2.6965h119.6781c3.9827,0,7.6716-1.3322,10.6101-3.6429,2.9232-2.3005,5.0903-5.5694,6.0448-9.4588l17.3199-71.0639c.1609-.5052.2413-1.0325.2384-1.5626,0-2.7162-2.1875-4.9197-4.9117-4.9197H114.7168l-6.8863-28.91c-.4643-2.2944-2.4811-3.9437-4.822-3.9433h-20.5902c-2.7163-.0008-4.9189,2.2005-4.9197,4.9168v.0029c0,2.7159,2.2016,4.9175,4.9175,4.9175h16.7089v-.0007Z" fill="#fff" fill-rule="evenodd"/>
  </g>
</svg>