<svg xmlns="http://www.w3.org/2000/svg" width="200" height="200" viewBox="0 0 96 96"><linearGradient id="check-mark" x1="15.483" x2="80.51" y1="80.511" y2="15.484" gradientUnits="userSpaceOnUse"><stop stop-opacity="1" stop-color="#ccb161" offset="0"/><stop stop-opacity="1" stop-color="#ffe599" offset="1"/></linearGradient><path d="M72.517 23.478c-6.293-6.265-14.938-10.148-24.52-10.148s-18.227 3.883-24.52 10.148c-6.264 6.293-10.148 14.938-10.148 24.52s3.884 18.227 10.148 24.52c6.293 6.265 14.939 10.148 24.52 10.148s18.227-3.884 24.52-10.148c6.265-6.293 10.148-14.938 10.148-24.52s-3.884-18.227-10.148-24.52zm-2.24 15.732-24.52 24.52-.057.057a4.947 4.947 0 0 1-3.401 1.36 4.913 4.913 0 0 1-3.458-1.417L25.717 50.605c-.936-.964-1.417-2.211-1.417-3.458s.482-2.522 1.417-3.458l.085-.057c.936-.936 2.154-1.389 3.401-1.389 1.248 0 2.495.482 3.458 1.446l9.638 9.638 21.033-21.033.057-.085a4.95 4.95 0 0 1 3.401-1.36c1.276 0 2.523.482 3.487 1.445l.057.057c.907.936 1.361 2.155 1.361 3.402s-.482 2.493-1.418 3.457zM80.51 15.484C72.205 7.15 60.696 1.991 47.997 1.991S23.789 7.15 15.483 15.484C7.15 23.789 1.991 35.298 1.991 47.997S7.15 72.205 15.483 80.511c8.306 8.333 19.814 13.493 32.514 13.493s24.208-5.159 32.513-13.493c8.334-8.306 13.493-19.814 13.493-32.514S88.844 23.789 80.51 15.484zm-5.187 59.839c-6.973 7.001-16.639 11.338-27.326 11.338s-20.353-4.337-27.326-11.338C13.669 68.35 9.333 58.684 9.333 47.997s4.337-20.353 11.338-27.326c6.973-7.001 16.64-11.338 27.326-11.338S68.35 13.67 75.323 20.671c7.002 6.974 11.339 16.64 11.339 27.326S82.325 68.35 75.323 75.323z" fill="url(#check-mark)"/></svg>